HIERARCHY
ROOT Hips
{
	OFFSET 0.00000 0.00000 0.00000
	CHANNELS 6 Xposition Yposition Zposition Zrotation Yrotation Xrotation 
	JOINT LHipJoint
	{
		OFFSET 0 0 0
		CHANNELS 3 Zrotation Yrotation Xrotation
		JOINT LeftUpLeg
		{
			OFFSET 1.58161 -1.81893 0.78828
			CHANNELS 3 Zrotation Yrotation Xrotation
			JOINT LeftLeg
			{
				OFFSET 2.53374 -6.96141 0.00000
				CHANNELS 3 Zrotation Yrotation Xrotation
				JOINT LeftFoot
				{
					OFFSET 2.63509 -7.23986 0.00000
					CHANNELS 3 Zrotation Yrotation Xrotation
					JOINT LeftToeBase
					{
						OFFSET 0.14115 -0.38781 2.05350
						CHANNELS 3 Zrotation Yrotation Xrotation
						End Site
						{
							OFFSET 0.00000 -0.00000 1.05543
						}
					}
				}
			}
		}
	}
	JOINT RHipJoint
	{
		OFFSET 0 0 0
		CHANNELS 3 Zrotation Yrotation Xrotation
		JOINT RightUpLeg
		{
			OFFSET -1.11138 -1.81893 0.78828
			CHANNELS 3 Zrotation Yrotation Xrotation
			JOINT RightLeg
			{
				OFFSET -2.58392 -7.09926 0.00000
				CHANNELS 3 Zrotation Yrotation Xrotation
				JOINT RightFoot
				{
					OFFSET -2.66423 -7.31992 0.00000
					CHANNELS 3 Zrotation Yrotation Xrotation
					JOINT RightToeBase
					{
						OFFSET -0.18831 -0.51739 2.12114
						CHANNELS 3 Zrotation Yrotation Xrotation
						End Site
						{
							OFFSET -0.00000 -0.00000 1.09845
						}
					}
				}
			}
		}
	}
	JOINT LowerBack
	{
		OFFSET 0 0 0
		CHANNELS 3 Zrotation Yrotation Xrotation
		JOINT Spine
		{
			OFFSET -0.01511 1.97958 -0.08829
			CHANNELS 3 Zrotation Yrotation Xrotation
			JOINT Spine1
			{
				OFFSET 0.08344 1.97334 -0.04330
				CHANNELS 3 Zrotation Yrotation Xrotation
				JOINT Neck
				{
					OFFSET 0 0 0
					CHANNELS 3 Zrotation Yrotation Xrotation
					JOINT Neck1
					{
						OFFSET 0.00559 1.76246 0.31246
						CHANNELS 3 Zrotation Yrotation Xrotation
						JOINT Head
						{
							OFFSET -0.07011 1.80354 -0.30524
							CHANNELS 3 Zrotation Yrotation Xrotation
							End Site
							{
								OFFSET -0.02385 1.83547 -0.13906
							}
						}
					}
				}
				JOINT LeftShoulder
				{
					OFFSET 0 0 0
					CHANNELS 3 Zrotation Yrotation Xrotation
					JOINT LeftArm
					{
						OFFSET 3.20667 1.30156 -0.60240
						CHANNELS 3 Zrotation Yrotation Xrotation
						JOINT LeftForeArm
						{
							OFFSET 4.95663 -0.00000 0.00000
							CHANNELS 3 Zrotation Yrotation Xrotation
							JOINT LeftHand
							{
								OFFSET 3.38177 -0.00000 0.00000
								CHANNELS 3 Zrotation Yrotation Xrotation
								JOINT LeftFingerBase
								{
									OFFSET 0 0 0
									CHANNELS 3 Zrotation Yrotation Xrotation
									JOINT LeftHandIndex1
									{
										OFFSET 0.66291 -0.00000 0.00000
										CHANNELS 3 Zrotation Yrotation Xrotation
										End Site
										{
											OFFSET 0.53445 -0.00000 0.00000
										}
									}
								}
								JOINT LThumb
								{
									OFFSET 0 0 0
									CHANNELS 3 Zrotation Yrotation Xrotation
									End Site
									{
										OFFSET 0.54261 -0.00000 0.54261
									}
								}
							}
						}
					}
				}
				JOINT RightShoulder
				{
					OFFSET 0 0 0
					CHANNELS 3 Zrotation Yrotation Xrotation
					JOINT RightArm
					{
						OFFSET -3.06877 1.34672 -0.60964
						CHANNELS 3 Zrotation Yrotation Xrotation
						JOINT RightForeArm
						{
							OFFSET -5.08365 -0.00000 0.00000
							CHANNELS 3 Zrotation Yrotation Xrotation
							JOINT RightHand
							{
								OFFSET -3.35984 -0.00000 0.00000
								CHANNELS 3 Zrotation Yrotation Xrotation
								JOINT RightFingerBase
								{
									OFFSET 0 0 0
									CHANNELS 3 Zrotation Yrotation Xrotation
									JOINT RightHandIndex1
									{
										OFFSET -0.82076 -0.00000 0.00000
										CHANNELS 3 Zrotation Yrotation Xrotation
										End Site
										{
											OFFSET -0.66172 -0.00000 0.00000
										}
									}
								}
								JOINT RThumb
								{
									OFFSET 0 0 0
									CHANNELS 3 Zrotation Yrotation Xrotation
									End Site
									{
										OFFSET -0.67182 -0.00000 0.67182
									}
								}
							}
						}
					}
				}
			}
		}
	}
}
MOTION
Frames: 13
Frame Time: .0083333
-5.9756 17.897 0.3208 0 0 0 0 0 0 -21 0 0 0 0 0 0 0 0 0 0 0 0 0 0 21 0 0 0 0 0 0 0 0 0 0 0 0 0 0 0 0 0 0 0 0 0 0 -16 0 0 21 0 0 11 0 0 0 -8 0 0 0 0 0 0 0 0 0 0 0 0 0 0 0 0 0 0 0 0 8 0 0 0 0 0 0 0 0 0 0 0 0 0 0 0 0 0
-5.9756 17.8970 0.3208 -94.8441 85.2202 -77.6043 0.0000 0.0000 0.0000 -4.3445 -0.4247 -29.9591 1.9505 8.7622 25.0543 0.2598 -3.5222 -9.0604 1.1885 -6.9181 -19.4729 0.0000 0.0000 0.0000 10.4283 8.9413 -26.3424 -1.4089 -7.5076 21.2282 -0.0010 -6.3076 -9.0255 -0.0484 -1.4205 3.9066 -1.1223 1.8038 -1.1790 3.7961 2.3981 3.4247 4.6748 1.1277 3.9887 1.7566 -1.6985 -14.6367 -3.3919 0.0942 39.0215 -1.6332 0.3841 16.4688 -0.0000 -0.0000 0.0000 -103.7781 -21.7515 82.5359 12.5613 -20.6411 -2.2963 -0.0000 0.0000 -42.0539 30.3751 64.5126 27.8820 -7.1250 0.0000 -0.0000 170.4002 7.8791 8.3138 -0.0000 -0.0000 0.0000 103.8509 23.1152 32.2914 -10.9185 18.1632 -1.7504 0.0000 -0.0000 -35.4237 -11.7010 -7.8504 1.6204 7.1250 -0.0000 -0.0000 12.8882 -37.7030 2.3623
-5.9774 17.8961 0.3158 -96.1505 85.2028 -78.8681 0.0000 0.0000 0.0000 -4.3026 -0.5802 -30.0057 1.9534 8.7683 25.0731 0.2596 -3.5072 -9.0570 1.1746 -6.8792 -19.3579 0.0000 0.0000 0.0000 10.4597 8.8323 -26.4333 -1.4130 -7.5181 21.2598 -0.0010 -6.3185 -9.0411 -0.0458 -1.3808 3.7973 -1.0540 1.7667 -1.2285 3.8216 2.3458 3.4078 4.6624 1.1034 4.0053 1.7286 -1.7072 -14.6233 -3.4157 0.1027 39.0288 -1.6370 0.3810 16.4699 0.0000 -0.0000 0.0000 -103.7543 -21.7375 82.3980 12.5748 -20.6611 -2.3011 -0.0000 0.0000 -42.2319 31.5136 64.6109 28.9825 -7.1250 0.0000 -0.0000 170.6529 8.1888 8.0309 0.0000 -0.0000 0.0000 103.8726 22.9839 32.5361 -11.0938 18.4319 -1.8055 0.0000 -0.0000 -36.9231 -12.3846 -7.8066 1.7084 7.1250 -0.0000 -0.0000 12.3081 -37.7049 2.2514
-5.9783 17.8953 0.3158 -95.8980 85.1827 -78.6109 0.0000 0.0000 0.0000 -4.2939 -0.5171 -30.0361 1.9545 8.7706 25.0804 0.2589 -3.5401 -9.0440 1.1548 -6.8228 -19.1913 0.0000 0.0000 0.0000 10.4804 8.8746 -26.4503 -1.4160 -7.5258 21.2828 0.0128 -6.4291 -8.8320 -0.0357 -1.2200 3.3542 -1.0551 1.7925 -1.2524 3.8350 2.3800 3.4058 4.6795 1.1203 4.0133 1.7629 -1.7466 -14.6266 -3.5040 0.0694 39.0391 -1.6882 0.3611 16.4743 0.0000 0.0000 0.0000 -103.7315 -21.7238 82.2971 12.5905 -20.6842 -2.3066 -0.0000 0.0000 -42.2953 32.2100 64.8169 29.6874 -7.1250 0.0000 -0.0000 170.7530 8.5131 7.8823 0.0000 0.0000 0.0000 103.9139 22.8953 32.4188 -11.2277 18.6364 -1.8480 0.0000 -0.0000 -37.8355 -12.4180 -7.9285 1.7397 7.1250 -0.0000 -0.0000 12.3039 -37.8288 2.2124
-5.9801 17.8939 0.3164 -95.1986 85.1985 -77.9219 0.0000 0.0000 0.0000 -4.3298 -0.4357 -30.0502 1.9563 8.7744 25.0921 0.2577 -3.5253 -9.0241 1.1415 -6.7847 -19.0790 0.0000 0.0000 0.0000 10.4407 9.0012 -26.4264 -1.4180 -7.5308 21.2979 -0.0794 -5.8896 -10.3404 -0.7250 -5.4407 15.1699 -1.0633 1.8339 -1.2551 3.8081 2.4358 3.4148 4.6586 1.1478 4.0200 1.8205 -1.7636 -14.6288 -3.5665 0.0463 39.0124 -1.7298 0.3508 16.4590 0.0000 0.0000 0.0000 -103.6526 -21.7258 82.2732 12.6136 -20.7185 -2.3148 -0.0000 0.0000 -42.2958 32.4498 65.0575 29.9649 -7.1250 0.0000 -0.0000 170.7253 8.7767 7.8574 0.0000 0.0000 0.0000 103.9761 22.8899 32.1067 -11.2746 18.7080 -1.8631 0.0000 -0.0000 -38.0859 -12.2190 -8.0733 1.7420 7.1250 -0.0000 -0.0000 12.4991 -37.9598 2.2079
-5.9816 17.8934 0.3151 -95.2873 85.2386 -77.9985 0.0000 0.0000 0.0000 -4.3590 -0.5167 -30.0535 1.9589 8.7799 25.1092 0.2575 -3.4700 -9.0188 1.1382 -6.7753 -19.0512 0.0000 0.0000 0.0000 10.3825 9.0203 -26.4400 -1.4183 -7.5317 21.3004 -0.0051 -6.3289 -9.1623 -0.6062 4.9836 -13.8618 -1.0656 1.8405 -1.2910 3.7841 2.4444 3.4230 4.6369 1.1515 4.0490 1.8225 -1.7526 -14.6330 -3.5720 0.0599 38.9776 -1.7296 0.3547 16.4422 -0.0000 -0.0000 0.0000 -103.5582 -21.7365 82.2814 12.6658 -20.7956 -2.3333 -0.0000 0.0000 -42.3781 32.8657 65.2066 30.3928 -7.1250 0.0000 -0.0000 170.7714 8.9940 7.7767 -0.0000 -0.0000 0.0000 103.9895 22.8835 32.0980 -11.3216 18.7796 -1.8782 0.0000 -0.0000 -38.4753 -12.3240 -8.2365 1.7927 7.1250 -0.0000 -0.0000 12.4435 -38.1297 2.1448
-5.9825 17.8929 0.3127 -96.0060 85.2199 -78.7020 0.0000 0.0000 0.0000 -4.3251 -0.6016 -30.0815 1.9622 8.7869 25.1310 0.2583 -3.4821 -9.0331 1.1409 -6.7831 -19.0745 0.0000 0.0000 0.0000 10.3964 8.9736 -26.4615 -1.4185 -7.5321 21.3016 -0.0108 -6.3758 -9.3711 -0.1040 2.0800 -5.7267 -1.0387 1.8258 -1.3028 3.8169 2.4236 3.4174 4.6555 1.1419 4.0514 1.7830 -1.7304 -14.6485 -3.5627 0.1034 38.9794 -1.7109 0.3681 16.4494 0.0000 -0.0000 0.0000 -103.5563 -21.7330 82.2032 12.6925 -20.8351 -2.3428 -0.0000 0.0000 -42.3651 33.0017 65.2070 30.5231 -7.1250 0.0000 -0.0000 170.8039 9.0221 7.7434 0.0000 -0.0000 0.0000 103.9348 22.8397 32.1718 -11.3829 18.8728 -1.8979 0.0000 -0.0000 -38.8430 -12.0825 -8.5698 1.8270 7.1250 -0.0000 -0.0000 12.7142 -38.4449 2.0928
-5.9831 17.8924 0.3109 -96.3789 85.1728 -79.0826 0.0000 0.0000 0.0000 -4.2947 -0.5547 -30.1178 1.9650 8.7927 25.1489 0.2587 -3.5394 -9.0422 1.1571 -6.8293 -19.2106 0.0000 0.0000 0.0000 10.4441 8.9596 -26.4516 -1.4188 -7.5330 21.3043 -0.0000 -6.4290 -9.1727 -0.0710 1.7194 -4.7309 -0.9830 1.8362 -1.2913 3.8399 2.4359 3.4216 4.6483 1.1498 4.0495 1.8155 -1.7134 -14.6568 -3.5784 0.1258 38.9801 -1.7198 0.3804 16.4527 -0.0000 -0.0000 0.0000 -103.5577 -21.7290 82.0289 12.6812 -20.8183 -2.3388 -0.0000 0.0000 -42.0358 31.9331 65.1612 29.4921 -7.1250 0.0000 -0.0000 170.5617 8.7667 8.0018 -0.0000 -0.0000 0.0000 103.9230 22.8064 32.0037 -11.4473 18.9706 -1.9188 0.0000 -0.0000 -39.0564 -11.6190 -8.8531 1.8125 7.1250 -0.0000 -0.0000 13.1641 -38.6926 2.0881
-5.9836 17.8919 0.3109 -96.2955 85.1858 -78.9935 0.0000 0.0000 0.0000 -4.3303 -0.4921 -30.1535 1.9669 8.7968 25.1618 0.2580 -3.5742 -9.0308 1.1761 -6.8834 -19.3703 0.0000 0.0000 0.0000 10.4219 8.9798 -26.4589 -1.4193 -7.5342 21.3080 -0.0154 -6.2761 -9.3490 -0.3397 3.7456 -10.3621 -0.9800 1.8760 -1.3270 3.8255 2.4888 3.4308 4.6357 1.1759 4.0755 1.8328 -1.7259 -14.6429 -3.5603 0.0956 38.9748 -1.7197 0.3738 16.4449 -0.0000 -0.0000 0.0000 -103.4489 -21.7140 82.0872 12.7611 -20.9362 -2.3672 -0.0000 0.0000 -41.9912 31.0379 65.2278 28.6516 -7.1250 0.0000 -0.0000 170.3191 8.6531 8.2358 -0.0000 -0.0000 0.0000 103.9470 22.8049 31.7634 -11.5107 19.0668 -1.9395 0.0000 -0.0000 -39.4749 -11.5610 -8.8878 1.8102 7.1250 -0.0000 -0.0000 13.2204 -38.7228 2.0874
-5.9844 17.8920 0.3105 -96.6254 85.2088 -79.3375 0.0000 0.0000 0.0000 -4.3604 -0.4898 -30.1495 1.9663 8.7956 25.1580 0.2570 -3.6268 -9.0149 1.1685 -6.8619 -19.3069 0.0000 0.0000 0.0000 10.4007 8.9408 -26.4573 -1.4205 -7.5373 21.3173 -0.0228 -6.2658 -9.5176 -0.1518 2.5103 -6.9181 -0.9885 1.9019 -1.3223 3.8231 2.5238 3.4297 4.6392 1.1933 4.0684 1.7725 -1.7506 -14.6240 -3.4811 0.0503 38.9828 -1.6814 0.3585 16.4428 -0.0000 -0.0000 0.0000 -103.3212 -21.6715 82.3108 12.9020 -21.1435 -2.4178 -0.0000 0.0000 -42.3052 31.6150 65.4387 29.2431 -7.1250 0.0000 -0.0000 170.3853 8.9536 8.1194 -0.0000 -0.0000 0.0000 103.9223 22.7649 31.6522 -11.5830 19.1763 -1.9631 0.0000 -0.0000 -40.1893 -11.7382 -8.8220 1.8252 7.1250 -0.0000 -0.0000 13.0570 -38.6706 2.0776
-5.9855 17.8923 0.3088 -97.3063 85.2477 -80.0674 0.0000 0.0000 0.0000 -4.4121 -0.5081 -30.1083 1.9638 8.7902 25.1411 0.2562 -3.6873 -9.0032 1.1481 -6.8036 -19.1347 0.0000 0.0000 0.0000 10.3726 8.8472 -26.4210 -1.4211 -7.5387 21.3215 -0.1065 -5.7013 -10.6949 -1.1328 -6.7599 19.0059 -1.0142 1.9084 -1.2694 3.8186 2.5340 3.4420 4.6474 1.1979 4.0494 1.7535 -1.7652 -14.6233 -3.4163 0.0071 38.9721 -1.6566 0.3467 16.4352 -0.0000 -0.0000 0.0000 -103.2347 -21.6483 82.4354 12.9947 -21.2795 -2.4514 -0.0000 0.0000 -42.4239 32.3767 65.6645 30.0156 -7.1250 0.0000 -0.0000 170.4867 9.3042 7.9636 -0.0000 -0.0000 0.0000 103.9662 22.7453 31.4671 -11.6340 19.2535 -1.9799 0.0000 -0.0000 -40.8211 -12.1013 -8.7569 1.8696 7.1250 -0.0000 -0.0000 12.7371 -38.6324 2.0369
-5.9866 17.8920 0.3074 -97.4470 85.3204 -80.2475 0.0000 0.0000 0.0000 -4.4850 -0.5576 -30.0526 1.9620 8.7865 25.1298 0.2560 -3.6954 -8.9994 1.0898 -6.6345 -18.6368 0.0000 0.0000 0.0000 10.2924 8.8260 -26.3720 -1.4194 -7.5345 21.3089 -0.0979 -5.7839 -10.6090 -1.0982 -6.6592 18.7096 -1.0822 1.9324 -1.2313 3.7937 2.5689 3.4583 4.6600 1.2133 4.0400 1.7772 -1.7910 -14.6416 -3.3868 -0.0549 38.9619 -1.6588 0.3282 16.4314 0.0000 0.0000 0.0000 -103.1169 -21.6515 82.6575 13.0833 -21.4091 -2.4836 -0.0000 0.0000 -42.4938 32.7982 65.9015 30.4661 -7.1250 0.0000 -0.0000 170.4990 9.5983 7.8961 0.0000 0.0000 0.0000 104.0500 22.7814 31.1613 -11.6481 19.2748 -1.9846 0.0000 -0.0000 -41.1938 -12.3583 -8.7647 1.9122 7.1250 -0.0000 -0.0000 12.5218 -38.6588 1.9928
-5.9873 17.8922 0.3055 -97.5645 85.2913 -80.4180 0.0000 0.0000 0.0000 -4.4392 -0.6091 -29.9736 1.9616 8.7856 25.1268 0.2574 -3.6865 -9.0235 1.0439 -6.4977 -18.2356 0.0000 0.0000 0.0000 10.3227 8.8368 -26.2936 -1.4172 -7.5287 21.2916 -0.0143 -6.3395 -9.4082 -0.3209 3.6411 -10.0691 -1.0602 1.9468 -1.1572 3.8231 2.5882 3.4611 4.6758 1.2245 3.9989 1.7785 -1.8258 -14.6206 -3.4462 -0.0872 38.9290 -1.6899 0.3064 16.4071 -0.0000 -0.0000 0.0000 -103.1033 -21.6798 82.7861 13.1186 -21.4607 -2.4965 -0.0000 0.0000 -42.4753 33.3903 66.1863 31.0908 -7.1250 0.0000 -0.0000 170.5294 9.9683 7.7984 -0.0000 -0.0000 0.0000 103.9983 22.7527 31.0359 -11.6897 19.3376 -1.9983 0.0000 -0.0000 -41.6534 -12.2643 -8.9470 1.9363 7.1250 -0.0000 -0.0000 12.6391 -38.8336 1.9568
